<?xml version="1.0" standalone="no"?>
<!DOCTYPE svg PUBLIC "-//W3C//DTD SVG 20010904//EN"
 "http://www.w3.org/TR/2001/REC-SVG-20010904/DTD/svg10.dtd">
<svg version="1.0" xmlns="http://www.w3.org/2000/svg"
 width="500.000000pt" height="500.000000pt" viewBox="0 0 500.000000 500.000000"
 preserveAspectRatio="xMidYMid meet">

<g transform="translate(0.000000,500.000000) scale(0.100000,-0.100000)"
fill="#000000" stroke="none">
<path d="M960 3508 c0 -3 16 -30 35 -59 42 -64 44 -77 8 -53 -82 53 -119 59
-64 9 26 -24 45 -33 57 -29 17 5 17 4 -1 -7 -11 -7 -34 -12 -51 -11 -36 3 -84
-13 -84 -27 0 -6 6 -9 13 -7 6 3 32 7 57 10 l45 6 -40 -19 c-22 -11 -34 -20
-26 -20 7 -1 -5 -19 -28 -42 -22 -23 -41 -46 -41 -51 0 -5 11 4 25 20 24 28
63 52 112 66 l22 7 -25 -46 c-13 -25 -18 -43 -12 -40 7 4 4 -1 -6 -9 -11 -9
-27 -16 -35 -16 -12 0 -11 -3 3 -13 17 -12 14 -47 -5 -47 -5 0 -9 -6 -9 -14 0
-8 -13 -42 -30 -78 -38 -80 -129 -173 -180 -182 -19 -3 -53 -17 -75 -29 -36
-21 -40 -27 -39 -60 2 -61 69 -184 138 -253 62 -61 119 -98 200 -129 45 -17
47 -17 67 1 42 38 64 103 64 189 0 70 -4 87 -30 134 -31 57 -95 112 -151 133
-32 11 -34 15 -29 43 12 60 26 92 48 113 22 21 127 67 127 56 0 -3 -9 -19 -21
-36 -33 -45 -11 -48 26 -3 35 41 41 39 48 -12 7 -46 17 -35 12 13 l-5 49 15
-39 c23 -60 28 -57 20 12 -8 69 -3 74 49 47 16 -9 31 -13 34 -10 10 9 -20 34
-54 45 -34 11 -35 13 -18 31 9 10 21 16 25 13 20 -12 7 40 -16 68 -14 16 -25
37 -25 46 1 14 3 14 12 -3 19 -32 78 -89 78 -75 0 7 -11 28 -25 46 -14 18 -25
36 -25 40 0 4 -7 15 -16 25 -14 16 -14 18 7 24 13 4 41 8 62 8 59 0 27 21 -35
23 -59 2 -71 15 -51 55 16 31 14 60 -3 66 -6 2 -16 -8 -22 -22 -14 -31 -28
-26 -37 15 -4 17 -11 30 -17 30 -6 0 -8 -10 -4 -22 3 -13 8 -41 12 -63 l5 -40
-15 30 c-14 30 -76 106 -76 93z m90 -293 c0 -25 -14 -34 -24 -16 -8 12 3 41
15 41 5 0 9 -11 9 -25z m70 -1 c0 -8 -4 -14 -10 -14 -5 0 -10 9 -10 21 0 11 5
17 10 14 6 -3 10 -13 10 -21z m-107 -38 c4 -10 1 -13 -9 -9 -15 6 -19 23 -5
23 5 0 11 -7 14 -14z m-65 -111 c-28 -30 -54 -53 -57 -50 -2 3 6 28 19 55 21
45 27 50 57 50 l33 0 -52 -55z m-108 -130 c0 -3 -7 -21 -14 -40 -10 -24 -22
-35 -35 -35 -27 0 -26 6 7 45 25 31 42 43 42 30z"/>
<path d="M1260 3185 c0 -3 24 -21 54 -40 30 -19 57 -39 61 -45 10 -16 -41 -12
-55 5 -16 19 -30 19 -30 0 0 -12 -4 -13 -19 -5 -44 23 -42 4 6 -43 22 -23 39
-33 43 -27 4 7 31 10 66 8 59 -3 59 -3 62 -35 5 -47 27 -41 49 12 13 33 25 47
43 51 90 20 113 36 80 54 -15 8 -35 8 -73 0 -50 -11 -56 -10 -151 29 -91 37
-136 49 -136 36z"/>
<path d="M875 3110 c-3 -6 1 -7 9 -4 18 7 21 14 7 14 -6 0 -13 -4 -16 -10z"/>
<path d="M3437 2925 c-48 -16 -62 -28 -81 -69 -32 -68 -15 -156 35 -182 63
-32 142 -9 180 53 23 36 28 118 10 152 -25 46 -87 66 -144 46z m89 -56 c32
-35 11 -147 -31 -163 -61 -23 -105 9 -105 76 0 52 19 89 54 103 34 15 58 10
82 -16z"/>
<path d="M1860 2923 c0 -5 -7 -62 -15 -128 -8 -65 -15 -123 -15 -127 0 -4 11
-8 24 -8 22 0 25 5 31 60 l7 60 59 0 59 0 -5 -30 c-3 -16 -7 -43 -10 -60 -4
-26 -2 -30 20 -30 27 0 26 -1 45 143 15 118 14 129 -12 125 -16 -2 -24 -11
-26 -28 -10 -93 -8 -90 -69 -90 l-56 0 6 60 c7 59 6 60 -18 60 -14 0 -25 -3
-25 -7z"/>
<path d="M2201 2906 c-5 -13 -35 -73 -65 -135 -56 -111 -56 -111 -31 -111 19
0 29 9 42 35 17 35 19 36 68 33 47 -3 50 -5 55 -33 4 -23 11 -31 32 -33 l26
-3 -13 58 c-8 32 -22 93 -32 136 -17 73 -19 77 -46 77 -20 0 -30 -7 -36 -24z
m48 -123 c1 -20 -4 -23 -34 -23 -19 0 -35 2 -35 4 0 2 12 30 27 62 l26 59 8
-40 c4 -22 8 -50 8 -62z"/>
<path d="M2400 2928 c0 -2 -7 -57 -15 -123 -19 -151 -19 -145 10 -145 22 0 25
4 25 34 0 56 8 66 52 66 79 0 130 98 78 150 -16 16 -33 20 -85 20 -36 0 -65
-1 -65 -2z m94 -38 c20 -7 26 -17 26 -39 0 -34 -18 -51 -57 -54 -27 -2 -28 -1
-24 43 5 65 8 68 55 50z"/>
<path d="M2621 2813 c-7 -65 -15 -126 -17 -135 -4 -14 1 -18 20 -18 23 0 26 5
32 50 l7 50 41 0 c51 0 81 20 96 64 13 39 1 80 -29 95 -11 6 -46 11 -79 11
l-59 0 -12 -117z m117 71 c41 -28 21 -79 -35 -90 -30 -6 -33 -4 -33 19 0 81
22 104 68 71z"/>
<path d="M2850 2924 c0 -3 14 -39 31 -81 27 -63 31 -83 26 -129 -5 -51 -4 -54
17 -54 23 0 36 29 36 82 0 10 22 51 48 91 69 102 67 97 38 97 -19 0 -32 -13
-61 -60 -20 -33 -38 -60 -39 -60 -2 0 -13 27 -25 60 -19 51 -26 60 -47 60 -13
0 -24 -3 -24 -6z"/>
<path d="M3242 2828 c-7 -55 -17 -107 -23 -114 -6 -7 -22 -14 -37 -16 -16 -2
-28 -10 -30 -20 -3 -15 4 -18 36 -18 62 0 86 36 101 147 15 121 15 123 -12
123 -22 0 -24 -5 -35 -102z"/>
<path d="M3656 2906 c-3 -13 -9 -62 -12 -109 -7 -82 -6 -86 19 -111 48 -48
140 -28 170 36 8 18 18 65 22 103 4 39 9 78 11 88 4 13 -1 17 -20 17 -27 0
-30 -8 -41 -117 -8 -71 -34 -113 -70 -113 -41 0 -48 22 -41 116 4 47 10 92 13
100 4 10 -2 14 -20 14 -18 0 -27 -7 -31 -24z"/>
<path d="M3921 2833 c-6 -54 -14 -115 -17 -135 -5 -35 -4 -38 19 -38 22 0 25
5 32 55 4 39 11 55 21 55 9 0 26 -24 40 -55 21 -45 30 -55 50 -55 30 0 30 13
-1 70 l-23 45 24 20 c35 29 43 86 15 114 -17 17 -33 21 -85 21 l-64 0 -11 -97z
m103 57 c49 -18 20 -90 -36 -90 -14 0 -18 8 -18 34 0 39 8 66 20 66 5 0 20 -4
34 -10z"/>
<path d="M4179 2928 c-1 -2 -9 -63 -18 -135 l-17 -133 22 0 c20 0 23 7 29 73
12 120 15 121 72 21 33 -59 57 -90 70 -92 18 -3 21 6 32 100 6 57 15 118 18
136 5 31 4 33 -18 30 -22 -3 -25 -9 -33 -90 -4 -49 -11 -88 -15 -88 -3 0 -28
41 -56 90 -33 60 -56 90 -67 90 -10 0 -19 -1 -19 -2z"/>
<path d="M4441 2823 c-7 -60 -14 -120 -17 -135 l-6 -28 81 0 c74 0 81 2 81 20
0 17 -7 20 -50 20 l-50 0 0 40 0 40 45 0 c38 0 45 3 45 20 0 17 -7 20 -40 20
-33 0 -40 3 -40 19 0 43 10 51 66 51 47 0 54 2 54 20 0 18 -7 20 -79 20 l-78
0 -12 -107z"/>
<path d="M4650 2924 c0 -3 14 -39 31 -81 27 -63 31 -83 26 -129 -5 -51 -4 -54
17 -54 23 0 36 29 36 82 0 10 22 51 48 91 69 102 67 97 38 97 -19 0 -32 -13
-61 -60 -20 -33 -38 -60 -39 -60 -2 0 -13 27 -25 60 -19 51 -26 60 -47 60 -13
0 -24 -3 -24 -6z"/>
<path d="M1425 2823 c-80 -4 -103 -10 -89 -23 14 -13 287 2 292 18 4 12 -27
13 -203 5z"/>
<path d="M1380 2733 c8 -4 23 -17 33 -30 16 -20 27 -23 86 -23 102 0 133 8
129 34 -3 20 -9 21 -133 23 -71 1 -123 -1 -115 -4z"/>
<path d="M1487 2613 c-12 -12 -7 -23 11 -23 14 0 15 -2 2 -10 -11 -7 -4 -10
26 -10 41 0 62 18 48 41 -6 10 -77 12 -87 2z"/>
<path d="M730 2150 c0 -64 3 -80 15 -80 12 0 15 16 15 80 0 64 -3 80 -15 80
-12 0 -15 -16 -15 -80z"/>
<path d="M830 2150 c0 -64 3 -80 15 -80 12 0 15 16 15 80 0 64 -3 80 -15 80
-12 0 -15 -16 -15 -80z"/>
<path d="M950 2218 c0 -34 44 -148 57 -148 10 0 13 6 8 18 -3 9 -16 45 -28 80
-20 57 -37 80 -37 50z"/>
<path d="M1060 2150 c0 -63 3 -80 14 -80 12 0 15 17 14 80 0 61 -4 80 -14 80
-11 0 -14 -19 -14 -80z"/>
<path d="M1138 2193 c3 -27 0 -40 -14 -50 -10 -7 -13 -13 -7 -13 6 0 21 9 34
19 20 16 22 23 14 47 -15 42 -32 41 -27 -3z"/>
<path d="M1200 2150 c0 -64 3 -80 15 -80 12 0 15 16 15 80 0 64 -3 80 -15 80
-12 0 -15 -16 -15 -80z"/>
<path d="M1279 2208 c10 -27 4 -49 -17 -65 -14 -12 -14 -13 0 -13 36 0 62 62
36 88 -19 19 -28 14 -19 -10z"/>
<path d="M1330 2224 c0 -3 12 -25 26 -50 18 -30 25 -54 22 -74 -3 -20 0 -30 9
-30 21 0 16 70 -9 118 -13 23 -29 42 -35 42 -7 0 -13 -3 -13 -6z"/>
<path d="M1428 2223 c7 -3 16 -2 19 1 4 3 -2 6 -13 5 -11 0 -14 -3 -6 -6z"/>
<path d="M898 2073 c7 -3 16 -2 19 1 4 3 -2 6 -13 5 -11 0 -14 -3 -6 -6z"/>
<path d="M1042 1965 c0 -16 2 -22 5 -12 2 9 2 23 0 30 -3 6 -5 -1 -5 -18z"/>
<path d="M1321 1944 c0 -11 3 -14 6 -6 3 7 2 16 -1 19 -3 4 -6 -2 -5 -13z"/>
</g>
</svg>
